<?xml version="1.0" encoding="UTF-8"?>
<!DOCTYPE svg PUBLIC "-//W3C//DTD SVG 1.1//EN" "http://www.w3.org/Graphics/SVG/1.1/DTD/svg11.dtd">
<svg version="1.2" width="152.03mm" height="152.02mm" viewBox="1549 2000 15203 15202" preserveAspectRatio="xMidYMid" fill-rule="evenodd" stroke-width="28.222" stroke-linejoin="round" xmlns="http://www.w3.org/2000/svg" xmlns:ooo="http://xml.openoffice.org/svg/export" xmlns:xlink="http://www.w3.org/1999/xlink" xmlns:presentation="http://sun.com/xmlns/staroffice/presentation" xmlns:smil="http://www.w3.org/2001/SMIL20/" xmlns:anim="urn:oasis:names:tc:opendocument:xmlns:animation:1.0" xml:space="preserve">
 <defs class="EmbeddedBulletChars">
  <g id="bullet-char-template-57356" transform="scale(0.00048828125,-0.00048828125)">
   <path d="M 580,1141 L 1163,571 580,0 -4,571 580,1141 Z"/>
  </g>
  <g id="bullet-char-template-57354" transform="scale(0.00048828125,-0.00048828125)">
   <path d="M 8,1128 L 1137,1128 1137,0 8,0 8,1128 Z"/>
  </g>
  <g id="bullet-char-template-10146" transform="scale(0.00048828125,-0.00048828125)">
   <path d="M 174,0 L 602,739 174,1481 1456,739 174,0 Z M 1358,739 L 309,1346 659,739 1358,739 Z"/>
  </g>
  <g id="bullet-char-template-10132" transform="scale(0.00048828125,-0.00048828125)">
   <path d="M 2015,739 L 1276,0 717,0 1260,543 174,543 174,936 1260,936 717,1481 1274,1481 2015,739 Z"/>
  </g>
  <g id="bullet-char-template-10007" transform="scale(0.00048828125,-0.00048828125)">
   <path d="M 0,-2 C -7,14 -16,27 -25,37 L 356,567 C 262,823 215,952 215,954 215,979 228,992 255,992 264,992 276,990 289,987 310,991 331,999 354,1012 L 381,999 492,748 772,1049 836,1024 860,1049 C 881,1039 901,1025 922,1006 886,937 835,863 770,784 769,783 710,716 594,584 L 774,223 C 774,196 753,168 711,139 L 727,119 C 717,90 699,76 672,76 641,76 570,178 457,381 L 164,-76 C 142,-110 111,-127 72,-127 30,-127 9,-110 8,-76 1,-67 -2,-52 -2,-32 -2,-23 -1,-13 0,-2 Z"/>
  </g>
  <g id="bullet-char-template-10004" transform="scale(0.00048828125,-0.00048828125)">
   <path d="M 285,-33 C 182,-33 111,30 74,156 52,228 41,333 41,471 41,549 55,616 82,672 116,743 169,778 240,778 293,778 328,747 346,684 L 369,508 C 377,444 397,411 428,410 L 1163,1116 C 1174,1127 1196,1133 1229,1133 1271,1133 1292,1118 1292,1087 L 1292,965 C 1292,929 1282,901 1262,881 L 442,47 C 390,-6 338,-33 285,-33 Z"/>
  </g>
  <g id="bullet-char-template-9679" transform="scale(0.00048828125,-0.00048828125)">
   <path d="M 813,0 C 632,0 489,54 383,161 276,268 223,411 223,592 223,773 276,916 383,1023 489,1130 632,1184 813,1184 992,1184 1136,1130 1245,1023 1353,916 1407,772 1407,592 1407,412 1353,268 1245,161 1136,54 992,0 813,0 Z"/>
  </g>
  <g id="bullet-char-template-8226" transform="scale(0.00048828125,-0.00048828125)">
   <path d="M 346,457 C 273,457 209,483 155,535 101,586 74,649 74,723 74,796 101,859 155,911 209,963 273,989 346,989 419,989 480,963 531,910 582,859 608,796 608,723 608,648 583,586 532,535 482,483 420,457 346,457 Z"/>
  </g>
  <g id="bullet-char-template-8211" transform="scale(0.00048828125,-0.00048828125)">
   <path d="M -4,459 L 1135,459 1135,606 -4,606 -4,459 Z"/>
  </g>
  <g id="bullet-char-template-61548" transform="scale(0.00048828125,-0.00048828125)">
   <path d="M 173,740 C 173,903 231,1043 346,1159 462,1274 601,1332 765,1332 928,1332 1067,1274 1183,1159 1299,1043 1357,903 1357,740 1357,577 1299,437 1183,322 1067,206 928,148 765,148 601,148 462,206 346,322 231,437 173,577 173,740 Z"/>
  </g>
 </defs>
 <g class="Page">
  <g class="Group">
   <g class="Group">
    <g class="com.sun.star.drawing.CustomShape">
     <g id="id3">
      <rect class="BoundingBox" stroke="none" fill="none" x="1549" y="2000" width="15203" height="15202"/>
      <path fill="rgb(25,156,216)" stroke="none" d="M 9018,2000 L 9019,2000 C 7708,2000 6420,2345 5284,3001 4149,3656 3206,4599 2551,5734 1895,6870 1550,8158 1550,9469 L 1550,9732 1550,9732 C 1550,11043 1895,12331 2551,13467 3206,14602 4149,15545 5284,16200 6420,16856 7708,17201 9019,17201 L 9282,17201 9282,17201 C 10593,17201 11881,16856 13017,16200 14152,15545 15095,14602 15750,13467 16406,12331 16751,11043 16751,9732 L 16751,9468 16751,9469 16751,9469 C 16751,8158 16406,6870 15750,5734 15095,4599 14152,3656 13017,3001 11881,2345 10593,2000 9282,2000 L 9018,2000 Z"/>
     </g>
    </g>
    <g class="com.sun.star.drawing.ClosedBezierShape">
     <g id="id4">
      <rect class="BoundingBox" stroke="none" fill="none" x="2404" y="5199" width="10998" height="5509"/>
      <path fill="rgb(255,255,255)" stroke="none" d="M 2750,7500 C 3450,7600 3964,7089 4243,6796 4522,6503 4787,6230 4972,5820 5279,6367 5743,7049 6431,6874 6876,6759 7198,6523 7467,6249 7736,5976 7991,5696 8043,5546 8427,6171 9041,6289 9540,6132 9847,6077 10200,5844 10423,5664 10557,5555 10640,5469 10653,5390 10999,5703 11293,5711 11767,5586 12240,5460 13104,5267 13400,5200 13052,5297 9793,6477 7342,7945 4891,9413 3760,10718 3300,10700 1684,10858 2750,7869 2750,7500 Z"/>
      <path fill="none" stroke="rgb(255,255,255)" d="M 2750,7500 C 3450,7600 3964,7089 4243,6796 4522,6503 4787,6230 4972,5820 5279,6367 5743,7049 6431,6874 6876,6759 7198,6523 7467,6249 7736,5976 7991,5696 8043,5546 8427,6171 9041,6289 9540,6132 9847,6077 10200,5844 10423,5664 10557,5555 10640,5469 10653,5390 10999,5703 11293,5711 11767,5586 12240,5460 13104,5267 13400,5200 13052,5297 9793,6477 7342,7945 4891,9413 3760,10718 3300,10700 1684,10858 2750,7869 2750,7500 Z"/>
     </g>
    </g>
    <g class="com.sun.star.drawing.ClosedBezierShape">
     <g id="id5">
      <rect class="BoundingBox" stroke="none" fill="none" x="3049" y="6450" width="12702" height="6251"/>
      <path fill="rgb(56,168,52)" stroke="none" d="M 12976,6700 C 13839,6700 14270,6948 14749,7444 15228,7939 15481,8461 15498,9018 15515,9575 15399,10226 15276,10864 15152,11501 14910,12187 14893,12450 10794,12426 7402,12452 3300,12400 4486,11697 6979,10196 7917,9570 10730,7693 12114,6700 12976,6700 Z"/>
      <path fill="none" stroke="rgb(255,255,255)" stroke-width="500" stroke-linejoin="round" d="M 12976,6700 C 13839,6700 14270,6948 14749,7444 15228,7939 15481,8461 15498,9018 15515,9575 15399,10226 15276,10864 15152,11501 14910,12187 14893,12450 10794,12426 7402,12452 3300,12400 4486,11697 6979,10196 7917,9570 10730,7693 12114,6700 12976,6700 Z"/>
     </g>
    </g>
   </g>
  </g>
 </g>
</svg>